
<svg xmlns="http://www.w3.org/2000/svg" viewBox="0 0 641.9627 598" ><path fill="#e6e6e6" d="M328.623 591.658c-3.12 0-6.273-.05-9.368-.147l.07-2.247c4.444.138 8.978.177 13.442.115l.031 2.25q-2.084.028-4.175.029Zm17.71-.522-.131-2.245c4.45-.263 8.956-.632 13.395-1.097l.235 2.237c-4.473.469-9.014.841-13.499 1.105Zm-40.601-.35a298.006 298.006 0 0 1-13.478-1.342l.274-2.232c4.423.542 8.922.99 13.375 1.33Zm67.533-2.474-.337-2.224c4.422-.67 8.877-1.45 13.239-2.316l.438 2.205a298.359 298.359 0 0 1-13.34 2.335Zm-94.412-.823a296.517 296.517 0 0 1-13.299-2.568l.477-2.2c4.359.948 8.799 1.804 13.198 2.55Zm120.973-4.457-.54-2.183c4.34-1.073 8.704-2.26 12.972-3.525l.639 2.157a295.95 295.95 0 0 1-13.07 3.552Zm-147.437-1.29a293.435 293.435 0 0 1-13.006-3.782l.678-2.144a291.07 291.07 0 0 0 12.905 3.752Zm173.4-6.412-.738-2.124a293.075 293.075 0 0 0 12.592-4.706l.835 2.09a294.86 294.86 0 0 1-12.689 4.74Zm-199.257-1.762a293.462 293.462 0 0 1-12.63-4.978l.874-2.074c4.125 1.738 8.341 3.4 12.532 4.94Zm224.374-8.288-.932-2.047c4.045-1.838 8.11-3.8 12.083-5.831l1.024 2.004a295.602 295.602 0 0 1-12.175 5.874Zm-249.386-2.243a295.707 295.707 0 0 1-12.109-6.116l1.06-1.984a294.682 294.682 0 0 0 12.017 6.07Zm273.455-10.06-1.114-1.954c3.879-2.213 7.751-4.54 11.507-6.916l1.202 1.9a295.201 295.201 0 0 1-11.595 6.97Zm-297.376-2.72a297.379 297.379 0 0 1-11.492-7.199l1.238-1.878a294.137 294.137 0 0 0 11.404 7.143Zm320.236-11.743-1.287-1.843a296.913 296.913 0 0 0 10.833-7.942l1.37 1.784a296.905 296.905 0 0 1-10.916 8.001Zm-342.875-3.168a298.602 298.602 0 0 1-10.781-8.213l1.403-1.758a296.291 296.291 0 0 0 10.7 8.15Zm364.334-13.324-1.45-1.72a297.568 297.568 0 0 0 10.07-8.898l1.527 1.652a298.737 298.737 0 0 1-10.147 8.966Zm-385.509-3.583a297.392 297.392 0 0 1-9.985-9.156l1.558-1.624a295.854 295.854 0 0 0 9.909 9.088Zm405.388-14.804-1.602-1.58a297.578 297.578 0 0 0 9.225-9.78l1.672 1.504a298.771 298.771 0 0 1-9.295 9.856Zm-424.929-3.95a299.45 299.45 0 0 1-9.107-10.023l1.7-1.474a295.542 295.542 0 0 0 9.038 9.945Zm443.06-16.175-1.737-1.428c2.835-3.45 5.627-7.01 8.299-10.584l1.802 1.347c-2.693 3.6-5.506 7.19-8.363 10.665Zm-460.807-4.271a296.977 296.977 0 0 1-8.154-10.804l1.825-1.313a296.711 296.711 0 0 0 8.093 10.722Zm477.038-17.432-1.861-1.263a293.597 293.597 0 0 0 7.302-11.302l1.918 1.178a298.449 298.449 0 0 1-7.36 11.387Zm-492.843-4.532a298.476 298.476 0 0 1-7.131-11.495l1.937-1.143a296.109 296.109 0 0 0 7.078 11.408Zm507.033-18.572-1.969-1.087a294.817 294.817 0 0 0 6.238-11.93l2.017.997a296.462 296.462 0 0 1-6.286 12.02Zm-520.761-4.73a296.107 296.107 0 0 1-6.047-12.091l2.035-.96c1.9 4.027 3.918 8.064 6 12Zm532.774-19.59-2.06-.902a293.341 293.341 0 0 0 5.116-12.461l2.1.806a295.611 295.611 0 0 1-5.156 12.557ZM55.433 409.53a295.044 295.044 0 0 1-4.908-12.587l2.114-.769a292.79 292.79 0 0 0 4.87 12.49Zm554.033-20.49-2.135-.707a291.063 291.063 0 0 0 3.937-12.852l2.166.609a295.07 295.07 0 0 1-3.968 12.95Zm-563.275-4.93a295.665 295.665 0 0 1-3.738-13.018l2.176-.571a293.444 293.444 0 0 0 3.71 12.92ZM616.8 362.97l-2.192-.51a292.782 292.782 0 0 0 2.738-13.158l2.212.406a294.043 294.043 0 0 1-2.758 13.262ZM39.32 357.914a296.093 296.093 0 0 1-2.523-13.307l2.22-.37a294.32 294.32 0 0 0 2.504 13.207Zm582.38-21.578-2.229-.306a291.814 291.814 0 0 0 1.52-13.354l2.24.202c-.406 4.49-.921 9.018-1.53 13.458Zm-586.813-5.137c-.53-4.453-.966-8.989-1.295-13.48l2.244-.165c.326 4.459.759 8.96 1.285 13.38Zm589.26-21.832-2.247-.1c.2-4.458.302-8.98.302-13.438h2.25c0 4.492-.103 9.048-.305 13.538ZM32.91 304.191a303.772 303.772 0 0 1-.116-8.362q0-2.597.044-5.184l2.25.04q-.044 2.567-.044 5.144c0 2.769.04 5.562.115 8.3Zm589.275-11.5c-.046-4.46-.195-8.982-.442-13.438l2.245-.125c.25 4.49.4 9.045.447 13.538ZM35.622 277.253l-2.245-.14c.28-4.495.668-9.035 1.151-13.494l2.236.242c-.479 4.426-.863 8.931-1.142 13.392Zm585.069-11.4a295.148 295.148 0 0 0-1.661-13.338l2.225-.328c.657 4.45 1.22 8.97 1.674 13.44ZM38.516 250.536l-2.223-.343c.689-4.45 1.49-8.936 2.38-13.334l2.205.446a293.401 293.401 0 0 0-2.362 13.231Zm578.243-11.265a295.37 295.37 0 0 0-2.878-13.13l2.186-.531a298.412 298.412 0 0 1 2.9 13.229ZM43.845 224.197l-2.183-.547a294.996 294.996 0 0 1 3.597-13.059l2.154.647a293.622 293.622 0 0 0-3.568 12.959ZM610.4 213.158a292.724 292.724 0 0 0-4.074-12.808l2.127-.732a294.083 294.083 0 0 1 4.107 12.907ZM51.59 198.423l-2.122-.746a294.781 294.781 0 0 1 4.797-12.7l2.086.843a291.912 291.912 0 0 0-4.761 12.603Zm550.076-10.68a295.23 295.23 0 0 0-5.224-12.35l2.052-.924c1.84 4.086 3.61 8.273 5.264 12.445Zm-539.98-14.288-2.043-.94a295.919 295.919 0 0 1 5.943-12.195l2 1.031a293.343 293.343 0 0 0-5.9 12.104Zm528.97-10.164a294.327 294.327 0 0 0-6.34-11.827l1.957-1.108a295.74 295.74 0 0 1 6.389 11.918ZM74.033 149.535l-1.95-1.122a297.201 297.201 0 0 1 7.035-11.593l1.896 1.21a294.85 294.85 0 0 0-6.98 11.505Zm503.406-9.6a296.849 296.849 0 0 0-7.399-11.206l1.848-1.282c2.552 3.68 5.06 7.478 7.455 11.291ZM88.513 126.86l-1.839-1.296a298.029 298.029 0 0 1 8.061-10.897l1.777 1.379a296.23 296.23 0 0 0-8 10.814Zm473.623-8.99a296.008 296.008 0 0 0-8.393-10.491l1.724-1.445a300.005 300.005 0 0 1 8.457 10.571Zm-457.14-12.259-1.713-1.459c2.91-3.418 5.944-6.82 9.015-10.113l1.645 1.535a298.152 298.152 0 0 0-8.948 10.037Zm439.884-8.333a296.85 296.85 0 0 0-9.316-9.689l1.586-1.596a300.18 300.18 0 0 1 9.387 9.763Zm-421.545-11.32-1.573-1.608a298.504 298.504 0 0 1 9.894-9.248l1.498 1.679a295.751 295.751 0 0 0-9.819 9.177Zm402.483-7.626a296.967 296.967 0 0 0-10.163-8.805l1.434-1.734a299.792 299.792 0 0 1 10.24 8.872ZM143.378 68.06l-1.42-1.744a298.482 298.482 0 0 1 10.687-8.306l1.34 1.807a296.393 296.393 0 0 0-10.607 8.243ZM505.1 61.19a297.62 297.62 0 0 0-10.928-7.846l1.27-1.856a298.588 298.588 0 0 1 11.01 7.906Zm-340.147-9.122-1.255-1.866a297.438 297.438 0 0 1 11.395-7.294l1.168 1.922a296.146 296.146 0 0 0-11.308 7.238Zm317.942-6.064a295.009 295.009 0 0 0-11.603-6.818l1.094-1.965c3.928 2.188 7.862 4.5 11.693 6.87Zm-295.01-7.885-1.079-1.974c3.94-2.156 7.98-4.247 12.006-6.217l.989 2.02a294.178 294.178 0 0 0-11.915 6.17Zm271.5-5.212a293.988 293.988 0 0 0-12.187-5.727l.909-2.057c4.116 1.819 8.248 3.76 12.282 5.77Zm-247.403-6.574-.894-2.064a295.483 295.483 0 0 1 12.517-5.087l.798 2.103a292.601 292.601 0 0 0-12.421 5.048Zm222.773-4.313a292.674 292.674 0 0 0-12.672-4.58l.717-2.133a294.989 294.989 0 0 1 12.768 4.616Zm-197.68-5.216-.7-2.137a294.194 294.194 0 0 1 12.963-3.922l.602 2.167a291.79 291.79 0 0 0-12.865 3.892Zm172.17-3.345a292.45 292.45 0 0 0-13.007-3.385l.516-2.19a295.49 295.49 0 0 1 13.108 3.412ZM262.972 9.618l-.501-2.193a294.746 294.746 0 0 1 13.27-2.711l.4 2.213a293.13 293.13 0 0 0-13.17 2.69Zm120.117-2.325a293.386 293.386 0 0 0-13.263-2.175l.312-2.227a296.32 296.32 0 0 1 13.366 2.19Zm-93.67-2.448-.298-2.23a296.966 296.966 0 0 1 13.46-1.484l.196 2.24c-4.444.388-8.938.884-13.358 1.474Zm67.058-1.29c-4.432-.418-8.942-.74-13.407-.956l.11-2.247c4.498.218 9.042.542 13.507.962Zm-40.285-1.046L316.097.26c4.135-.172 8.348-.26 12.526-.261l1.018.002-.006 2.25-1.012-.002c-4.146 0-8.329.088-12.431.259Z"/><path fill="#2f2e41" d="M329.33 590.121V467.107a6.508 6.508 0 0 1 6.5-6.5h14.76a6.508 6.508 0 0 1 6.5 6.5V590.12a6.508 6.508 0 0 1-6.5 6.5h-14.76a6.508 6.508 0 0 1-6.5-6.5ZM300.138 590.121V467.107a6.508 6.508 0 0 1 6.5-6.5h14.76a6.508 6.508 0 0 1 6.5 6.5V590.12a6.508 6.508 0 0 1-6.5 6.5h-14.76a6.508 6.508 0 0 1-6.5-6.5Z"/><rect width="71.76" height="79.506" x="292.734" y="426.494" fill="#2f2e41" rx="6"/><path fill="#e6e6e6" d="M228.149 233.226s-30.159 14.01-55.68 23.301c-15.837-35.75-38.653-34.413-38.653-34.413l-13.832 9.525 2.494 14.285-.68 23.357-3.628 12.245 5.206.94 2.941.534.444-.4a30.219 30.219 0 0 0-.881 8.903l130.84-20.408s-4.534-21.089-28.571-37.87Z"/><rect width="26.76" height="135.014" x="513.827" y="466.41" fill="#ff2f78" rx="6" transform="rotate(-126.466 349.615 528.787)"/><rect width="26.76" height="135.014" x="648.848" y="479.41" fill="#ff2f78" rx="6" transform="rotate(-27.954 219.388 1031.914)"/><path fill="#ccc" d="m394.632 381.053-21.293 14.115c-3.254 1.727-7.15.754-8.704-2.173l-23.515-44.311c-1.554-2.927-.175-6.7 3.079-8.427l14.493-7.69c3.253-1.728 7.15-.755 8.704 2.172l30.315 37.887c1.553 2.927.175 6.7-3.079 8.427ZM249.532 368.072l13.84 18.38a6 6 0 0 0 8.48.268l36.577-34.331a6 6 0 0 0 .268-8.481l-10.1-10.762a6 6 0 0 0-8.482-.269L249.8 359.591a6 6 0 0 0-.268 8.481Z"/><rect width="79.062" height="154.476" x="289.083" y="331.059" fill="#ccc" rx="6"/><circle cx="328.222" cy="268.242" r="53.519" fill="#ff2f78"/><path fill="#2f2e41" d="M334.46 286.111c-3.307-.092-7.422-.208-10.589-2.522a8.131 8.131 0 0 1-3.2-6.073 5.47 5.47 0 0 1 1.86-4.493c1.654-1.398 4.072-1.728 6.678-.96l-2.7-19.727 1.983-.272 3.172 23.19-1.654-.758c-1.917-.88-4.551-1.328-6.188.055a3.514 3.514 0 0 0-1.152 2.894 6.146 6.146 0 0 0 2.38 4.529c2.465 1.8 5.746 2.034 9.467 2.137ZM305.939 254.037h10.771v2h-10.771zM339.939 254.037h10.771v2h-10.771zM292.866 226.42c-8.674-.99-15.392-9.3-16.13-17.734-.878-10.032 4.965-19.56 12.98-25.19 8.382-5.887 18.826-8.345 28.93-8.886a79.51 79.51 0 0 1 54.348 17.913c7.572 6.289 14.643 14.3 17.323 23.975 2.328 8.402.434 17.922-6.325 23.807a15.976 15.976 0 0 1-12.26 3.775c-5.244-.545-10.082-3.302-14.27-6.347-8.147-5.924-14.835-14.176-24.76-17.271-7.278-2.27-16.723-.272-21.17 6.31a11.979 11.979 0 0 0-1.913 5.018 1.553 1.553 0 0 0 1.048 1.845 1.51 1.51 0 0 0 1.845-1.047c1.168-8.29 11.36-11.383 18.513-9.49 10.428 2.76 17.429 12.066 25.985 17.979 4.499 3.108 9.615 5.594 15.133 6.04a18.79 18.79 0 0 0 13.203-4.056c7.31-5.772 10.105-15.7 8.489-24.638-1.872-10.35-8.839-19.221-16.482-26.089a82.447 82.447 0 0 0-56.344-20.814c-10.574.242-21.607 2.425-30.716 8.014-8.835 5.42-15.665 14.49-16.557 25.032-.786 9.279 4.192 18.984 12.738 23.05a19.949 19.949 0 0 0 6.392 1.803c1.915.219 1.9-2.783 0-3Z"/><path fill="#ccc" d="m126.22 281.186 6.349-2.041c.68-1.304-.565-.467.03-1.735 16.063-34.27 1.217-55.296 1.217-55.296l-11.485 7.908c-.028-.065-.051-.132-.08-.198 0 0-2.04-4.535-5.215-1.134 0 0 9.977 24.264-1.134 54.423l12.925 5.896 4.99-5.896.113-.567-8.929-.811Z"/><path fill="#3f3d56" d="M307.289 408.512c-51.022-11.338-98.528 12.132-98.528 12.132l-.13-.116-18.918-16.891L115.789 283l18.027.113c50.114-29.932 120.637-25.85 120.637-25.85 30.386 34.467 52.836 151.25 52.836 151.25Z"/><path d="m487.65 571.529-18.919-16.892L394.807 434l18.028.113s71.851 94.898 74.815 137.416Z" opacity=".1" style="isolation:isolate" transform="translate(-279.019 -151)"/><ellipse cx="490.501" cy="459.624" fill="#ff2f78" rx="29.252" ry="18.594" transform="rotate(-17.052 -152.632 1314.722)"/><path fill="#ccc" d="M59.012 224.508c-4.074 15.06-18.028 24.386-18.028 24.386s-7.349-15.09-3.275-30.149 18.028-24.386 18.028-24.386 7.348 15.09 3.275 30.149Z"/><path fill="#ccc" d="M21.951 224.508c4.074 15.06 18.028 24.386 18.028 24.386s7.349-15.09 3.275-30.149-18.028-24.386-18.028-24.386-7.349 15.09-3.275 30.149Z"/><path fill="#3f3d56" d="M27.937 221.271c11.179 10.882 12.544 27.61 12.544 27.61s-16.758-.915-27.937-11.797S0 209.474 0 209.474s16.759.915 27.937 11.797Z"/><path fill="#3f3d56" d="M53.025 221.271c-11.178 10.882-12.544 27.61-12.544 27.61s16.76-.915 27.938-11.797 12.544-27.61 12.544-27.61-16.759.915-27.938 11.797Z"/><path fill="#ccc" d="M620.012 394.508c-4.074 15.06-18.028 24.386-18.028 24.386s-7.349-15.09-3.275-30.149 18.028-24.386 18.028-24.386 7.348 15.09 3.275 30.149Z"/><path fill="#ccc" d="M582.951 394.508c4.074 15.06 18.028 24.386 18.028 24.386s7.349-15.09 3.275-30.149-18.028-24.386-18.028-24.386-7.349 15.09-3.275 30.149Z"/><path fill="#3f3d56" d="M588.937 391.271c11.179 10.882 12.544 27.61 12.544 27.61s-16.758-.915-27.937-11.797S561 379.474 561 379.474s16.759.915 27.937 11.797ZM614.025 391.271c-11.178 10.882-12.544 27.61-12.544 27.61s16.76-.915 27.938-11.797 12.544-27.61 12.544-27.61-16.759.915-27.938 11.797ZM213.963 596h232v2h-232z"/></svg>